<?xml version="1.0" encoding="utf-8"?>
<!-- Generator: Adobe Illustrator 23.0.1, SVG Export Plug-In . SVG Version: 6.00 Build 0)  -->
<svg version="1.1" id="Laag_1" xmlns="http://www.w3.org/2000/svg" xmlns:xlink="http://www.w3.org/1999/xlink" x="0px" y="0px"
	 viewBox="0 0 234.23 116.08" style="enable-background:new 0 0 234.23 116.08;" xml:space="preserve">
<style type="text/css">
	.st0{fill:#7F7B7A;}
	.st1{fill:#AFAFAF;}
	.st2{fill:#DEDE31;}
</style>
<ellipse id="pan2" class="st0" cx="73" cy="24.5" rx="73" ry="24.5"/>
<path class="st1" d="M199,26.99h-53v5h53c15.36,0,32.6,9.58,32.78,9.68l2.45-4.36C233.48,36.89,215.69,26.99,199,26.99z"/>
<path id="banaan" class="st2" d="M29.07,96.67c9.9-1.52,19.21-2.43,28.12-3.97c4.43-0.75,8.73-1.63,12.77-2.77
	c4.03-1.14,7.77-2.58,10.96-4.37c3.17-1.84,6.31-4.32,9.34-7.21c3.04-2.88,5.98-6.14,8.89-9.57c5.86-6.87,11.4-14.41,17.78-22.15
	c0.06,2.54-0.19,5.03-0.54,7.5c-0.35,2.47-0.86,4.91-1.47,7.33c-0.63,2.41-1.36,4.8-2.23,7.15c-0.84,2.36-1.82,4.68-2.94,6.96
	c-2.21,4.57-4.94,8.97-8.34,13.07c-3.39,4.09-7.52,7.88-12.58,10.81c-5.1,2.85-10.47,4.46-15.72,5.29
	c-5.26,0.83-10.44,0.92-15.49,0.49c-5.05-0.45-9.98-1.37-14.77-2.76c-2.39-0.71-4.75-1.51-7.05-2.47
	C33.5,99.07,31.22,98.01,29.07,96.67z"/>
<path id="pan1" class="st1" d="M145.99,24.65C145.75,38.11,113.17,49,73,49S0.25,38.11,0.01,24.65C0.01,24.7,0,24.75,0,24.79
	c0,0.05,0.01,0.1,0.01,0.15c0,0.05-0.01,0.1-0.01,0.15s0.01,0.1,0.01,0.15c0,0.05-0.01,0.1-0.01,0.15s0.01,0.1,0.01,0.15
	c0,0.05-0.01,0.1-0.01,0.15s0.01,0.1,0.01,0.15c0,0.05-0.01,0.1-0.01,0.15s0.01,0.1,0.01,0.15c0,0.05-0.01,0.1-0.01,0.15
	s0.01,0.1,0.01,0.15c0,0.05-0.01,0.1-0.01,0.15s0.01,0.1,0.01,0.15c0,0.05-0.01,0.1-0.01,0.15s0.01,0.1,0.01,0.15
	c0,0.05-0.01,0.1-0.01,0.15s0.01,0.1,0.01,0.15c0,0.05-0.01,0.1-0.01,0.15s0.01,0.1,0.01,0.15c0,0.05-0.01,0.1-0.01,0.15
	s0.01,0.1,0.01,0.15c0,0.05-0.01,0.1-0.01,0.15s0.01,0.1,0.01,0.15c0,0.05-0.01,0.1-0.01,0.15s0.01,0.1,0.01,0.15
	C0.01,28.5,0,28.55,0,28.6s0.01,0.1,0.01,0.15c0,0.05-0.01,0.1-0.01,0.15s0.01,0.1,0.01,0.15c0,0.05-0.01,0.1-0.01,0.15
	s0.01,0.1,0.01,0.15c0,0.05-0.01,0.1-0.01,0.15s0.01,0.1,0.01,0.15c0,0.05-0.01,0.1-0.01,0.15s0.01,0.1,0.01,0.15
	c0,0.05-0.01,0.1-0.01,0.15s0.01,0.1,0.01,0.15c0,0.05-0.01,0.1-0.01,0.15s0.01,0.1,0.01,0.15c0,0.05-0.01,0.1-0.01,0.15
	s0.01,0.1,0.01,0.15c0,0.05-0.01,0.1-0.01,0.15s0.01,0.1,0.01,0.15c0,0.05-0.01,0.1-0.01,0.15s0.01,0.1,0.01,0.15
	c0,0.05-0.01,0.1-0.01,0.15s0.01,0.1,0.01,0.15c0,0.05-0.01,0.1-0.01,0.15s0.01,0.1,0.01,0.15c0,0.05-0.01,0.1-0.01,0.15
	s0.01,0.1,0.01,0.15c0,0.05-0.01,0.1-0.01,0.15s0.01,0.1,0.01,0.15C0.01,32.6,0,32.65,0,32.7s0.01,0.1,0.01,0.15
	C0.01,32.9,0,32.95,0,33s0.01,0.1,0.01,0.15c0,0.05-0.01,0.1-0.01,0.15s0.01,0.1,0.01,0.15c0,0.05-0.01,0.1-0.01,0.15
	s0.01,0.1,0.01,0.15c0,0.05-0.01,0.1-0.01,0.15s0.01,0.1,0.01,0.15c0,0.05-0.01,0.1-0.01,0.15s0.01,0.1,0.01,0.15
	c0,0.05-0.01,0.1-0.01,0.15s0.01,0.1,0.01,0.15c0,0.05-0.01,0.1-0.01,0.15s0.01,0.1,0.01,0.15C0.01,34.95,0,35,0,35.05
	s0.01,0.1,0.01,0.15c0,0.05-0.01,0.1-0.01,0.15s0.01,0.1,0.01,0.15c0,0.05-0.01,0.1-0.01,0.15s0.01,0.1,0.01,0.15
	c0,0.05-0.01,0.1-0.01,0.15s0.01,0.1,0.01,0.15c0,0.05-0.01,0.1-0.01,0.15s0.01,0.1,0.01,0.15c0,0.05-0.01,0.1-0.01,0.15
	s0.01,0.1,0.01,0.15c0,0.05-0.01,0.1-0.01,0.15s0.01,0.1,0.01,0.15C0.01,37,0,37.05,0,37.1s0.01,0.1,0.01,0.15
	c0,0.05-0.01,0.1-0.01,0.15s0.01,0.1,0.01,0.15c0,0.05-0.01,0.1-0.01,0.15s0.01,0.1,0.01,0.15c0,0.05-0.01,0.1-0.01,0.15
	s0.01,0.1,0.01,0.15c0,0.05-0.01,0.1-0.01,0.15s0.01,0.1,0.01,0.15c0,0.05-0.01,0.1-0.01,0.15s0.01,0.1,0.01,0.15
	c0,0.05-0.01,0.1-0.01,0.15s0.01,0.1,0.01,0.15c0,0.05-0.01,0.1-0.01,0.15s0.01,0.1,0.01,0.15c0,0.05-0.01,0.1-0.01,0.15
	s0.01,0.1,0.01,0.15c0,0.05-0.01,0.1-0.01,0.15s0.01,0.1,0.01,0.15c0,0.05-0.01,0.1-0.01,0.15s0.01,0.1,0.01,0.15
	c0,0.05-0.01,0.1-0.01,0.15s0.01,0.1,0.01,0.15c0,0.05-0.01,0.1-0.01,0.15s0.01,0.1,0.01,0.15c0,0.05-0.01,0.1-0.01,0.15
	s0.01,0.1,0.01,0.15C0.01,41.1,0,41.15,0,41.2s0.01,0.1,0.01,0.15c0,0.05-0.01,0.1-0.01,0.15s0.01,0.1,0.01,0.15
	c0,0.05-0.01,0.1-0.01,0.15s0.01,0.1,0.01,0.15c0,0.05-0.01,0.1-0.01,0.15s0.01,0.1,0.01,0.15c0,0.05-0.01,0.1-0.01,0.15
	s0.01,0.1,0.01,0.15c0,0.05-0.01,0.1-0.01,0.15s0.01,0.1,0.01,0.15c0,0.05-0.01,0.1-0.01,0.15s0.01,0.1,0.01,0.15
	c0,0.05-0.01,0.1-0.01,0.15s0.01,0.1,0.01,0.15c0,0.05-0.01,0.1-0.01,0.15s0.01,0.1,0.01,0.15c0,0.05-0.01,0.1-0.01,0.15
	s0.01,0.1,0.01,0.15c0,0.05-0.01,0.1-0.01,0.15s0.01,0.1,0.01,0.15c0,0.05-0.01,0.1-0.01,0.15s0.01,0.1,0.01,0.15
	c0,0.05-0.01,0.1-0.01,0.15s0.01,0.1,0.01,0.15c0,0.05-0.01,0.1-0.01,0.15s0.01,0.1,0.01,0.15C0.01,45.2,0,45.25,0,45.3
	s0.01,0.1,0.01,0.15c0,0.05-0.01,0.1-0.01,0.15s0.01,0.1,0.01,0.15c0,0.05-0.01,0.1-0.01,0.15s0.01,0.1,0.01,0.15
	c0,0.05-0.01,0.1-0.01,0.15s0.01,0.1,0.01,0.15c0,0.05-0.01,0.1-0.01,0.15s0.01,0.1,0.01,0.15c0,0.05-0.01,0.1-0.01,0.15
	s0.01,0.1,0.01,0.15c0,0.05-0.01,0.1-0.01,0.15s0.01,0.1,0.01,0.15c0,0.05-0.01,0.1-0.01,0.15s0.01,0.1,0.01,0.15
	c0,0.05-0.01,0.1-0.01,0.15s0.01,0.1,0.01,0.15c0,0.05-0.01,0.1-0.01,0.15s0.01,0.1,0.01,0.15c0,0.05-0.01,0.1-0.01,0.15
	s0.01,0.1,0.01,0.15c0,0.05-0.01,0.1-0.01,0.15s0.01,0.1,0.01,0.15c0,0.05-0.01,0.1-0.01,0.15s0.01,0.1,0.01,0.15
	c0,0.05-0.01,0.1-0.01,0.15s0.01,0.1,0.01,0.15C0.01,49.3,0,49.35,0,49.4s0.01,0.1,0.01,0.15c0,0.05-0.01,0.1-0.01,0.15
	s0.01,0.1,0.01,0.15c0,0.05-0.01,0.1-0.01,0.15s0.01,0.1,0.01,0.15c0,0.05-0.01,0.1-0.01,0.15s0.01,0.1,0.01,0.15
	c0,0.05-0.01,0.1-0.01,0.15s0.01,0.1,0.01,0.15c0,0.05-0.01,0.1-0.01,0.15s0.01,0.1,0.01,0.15c0,0.05-0.01,0.1-0.01,0.15
	s0.01,0.1,0.01,0.15c0,0.05-0.01,0.1-0.01,0.15s0.01,0.1,0.01,0.15c0,0.05-0.01,0.1-0.01,0.15s0.01,0.1,0.01,0.15
	c0,0.05-0.01,0.1-0.01,0.15s0.01,0.1,0.01,0.15c0,0.05-0.01,0.1-0.01,0.15s0.01,0.1,0.01,0.15c0,0.05-0.01,0.1-0.01,0.15
	s0.01,0.1,0.01,0.15c0,0.05-0.01,0.1-0.01,0.15s0.01,0.1,0.01,0.15c0,0.05-0.01,0.1-0.01,0.15s0.01,0.1,0.01,0.15
	C0.01,53.4,0,53.45,0,53.5s0.01,0.1,0.01,0.15c0,0.05-0.01,0.1-0.01,0.15s0.01,0.1,0.01,0.15c0,0.05-0.01,0.1-0.01,0.15
	s0.01,0.1,0.01,0.15c0,0.05-0.01,0.1-0.01,0.15s0.01,0.1,0.01,0.15c0,0.05-0.01,0.1-0.01,0.15s0.01,0.1,0.01,0.15
	c0,0.05-0.01,0.1-0.01,0.15s0.01,0.1,0.01,0.15c0,0.05-0.01,0.1-0.01,0.15s0.01,0.1,0.01,0.15c0,0.05-0.01,0.1-0.01,0.15
	s0.01,0.1,0.01,0.15c0,0.05-0.01,0.1-0.01,0.15s0.01,0.1,0.01,0.15c0,0.05-0.01,0.1-0.01,0.15s0.01,0.1,0.01,0.15
	c0,0.05-0.01,0.1-0.01,0.15s0.01,0.1,0.01,0.15c0,0.05-0.01,0.1-0.01,0.15s0.01,0.1,0.01,0.15c0,0.05-0.01,0.1-0.01,0.15
	s0.01,0.1,0.01,0.15c0,0.05-0.01,0.1-0.01,0.15s0.01,0.1,0.01,0.15C0.01,57.5,0,57.55,0,57.6s0.01,0.1,0.01,0.15
	c0,0.05-0.01,0.1-0.01,0.15s0.01,0.1,0.01,0.15c0,0.05-0.01,0.1-0.01,0.15s0.01,0.1,0.01,0.15c0,0.05-0.01,0.1-0.01,0.15
	s0.01,0.1,0.01,0.15c0,0.05-0.01,0.1-0.01,0.15s0.01,0.1,0.01,0.15c0,0.05-0.01,0.1-0.01,0.15s0.01,0.1,0.01,0.15
	c0,0.05-0.01,0.1-0.01,0.15s0.01,0.1,0.01,0.15c0,0.05-0.01,0.1-0.01,0.15s0.01,0.1,0.01,0.15c0,0.05-0.01,0.1-0.01,0.15
	s0.01,0.1,0.01,0.15c0,0.05-0.01,0.1-0.01,0.15s0.01,0.1,0.01,0.15c0,0.05-0.01,0.1-0.01,0.15s0.01,0.1,0.01,0.15
	c0,0.05-0.01,0.1-0.01,0.15s0.01,0.1,0.01,0.15c0,0.05-0.01,0.1-0.01,0.15s0.01,0.1,0.01,0.15c0,0.05-0.01,0.1-0.01,0.15
	s0.01,0.1,0.01,0.15c0,0.05-0.01,0.1-0.01,0.15s0.01,0.1,0.01,0.15C0.01,61.9,0,61.95,0,62s0.01,0.1,0.01,0.15
	c0,0.05-0.01,0.1-0.01,0.15s0.01,0.1,0.01,0.15c0,0.05-0.01,0.1-0.01,0.15s0.01,0.1,0.01,0.15c0,0.05-0.01,0.1-0.01,0.15
	s0.01,0.1,0.01,0.15c0,0.05-0.01,0.1-0.01,0.15s0.01,0.1,0.01,0.15c0,0.05-0.01,0.1-0.01,0.15s0.01,0.1,0.01,0.15
	c0,0.05-0.01,0.1-0.01,0.15s0.01,0.1,0.01,0.15C0.01,63.95,0,64,0,64.05c0,0.05,0.01,0.1,0.01,0.15c0,0.05-0.01,0.1-0.01,0.15
	s0.01,0.1,0.01,0.15c0,0.05-0.01,0.1-0.01,0.15s0.01,0.1,0.01,0.15c0,0.05-0.01,0.1-0.01,0.15s0.01,0.1,0.01,0.15
	c0,0.05-0.01,0.1-0.01,0.15s0.01,0.1,0.01,0.15c0,0.05-0.01,0.1-0.01,0.15s0.01,0.1,0.01,0.15c0,0.05-0.01,0.1-0.01,0.15
	s0.01,0.1,0.01,0.15C0.01,66,0,66.05,0,66.1s0.01,0.1,0.01,0.15c0,0.05-0.01,0.1-0.01,0.15s0.01,0.1,0.01,0.15
	c0,0.05-0.01,0.1-0.01,0.15s0.01,0.1,0.01,0.15c0,0.05-0.01,0.1-0.01,0.15s0.01,0.1,0.01,0.15c0,0.05-0.01,0.1-0.01,0.15
	s0.01,0.1,0.01,0.15c0,0.05-0.01,0.1-0.01,0.15s0.01,0.1,0.01,0.15c0,0.05-0.01,0.1-0.01,0.15s0.01,0.1,0.01,0.15
	c0,0.05-0.01,0.1-0.01,0.15s0.01,0.1,0.01,0.15c0,0.05-0.01,0.1-0.01,0.15s0.01,0.1,0.01,0.15c0,0.05-0.01,0.1-0.01,0.15
	s0.01,0.1,0.01,0.15c0,0.05-0.01,0.1-0.01,0.15s0.01,0.1,0.01,0.15c0,0.05-0.01,0.1-0.01,0.15s0.01,0.1,0.01,0.15
	c0,0.05-0.01,0.1-0.01,0.15s0.01,0.1,0.01,0.15c0,0.05-0.01,0.1-0.01,0.15s0.01,0.1,0.01,0.15C0.01,70.1,0,70.15,0,70.2
	s0.01,0.1,0.01,0.15c0,0.05-0.01,0.1-0.01,0.15s0.01,0.1,0.01,0.15c0,0.05-0.01,0.1-0.01,0.15s0.01,0.1,0.01,0.15
	c0,0.05-0.01,0.1-0.01,0.15s0.01,0.1,0.01,0.15c0,0.05-0.01,0.1-0.01,0.15s0.01,0.1,0.01,0.15c0,0.05-0.01,0.1-0.01,0.15
	s0.01,0.1,0.01,0.15c0,0.05-0.01,0.1-0.01,0.15s0.01,0.1,0.01,0.15c0,0.05-0.01,0.1-0.01,0.15s0.01,0.1,0.01,0.15
	c0,0.05-0.01,0.1-0.01,0.15s0.01,0.1,0.01,0.15c0,0.05-0.01,0.1-0.01,0.15s0.01,0.1,0.01,0.15c0,0.05-0.01,0.1-0.01,0.15
	s0.01,0.1,0.01,0.15c0,0.05-0.01,0.1-0.01,0.15s0.01,0.1,0.01,0.15c0,0.05-0.01,0.1-0.01,0.15s0.01,0.1,0.01,0.15
	c0,0.05-0.01,0.1-0.01,0.15s0.01,0.1,0.01,0.15C0.01,74.2,0,74.25,0,74.3s0.01,0.1,0.01,0.15c0,0.05-0.01,0.1-0.01,0.15
	s0.01,0.1,0.01,0.15c0,0.05-0.01,0.1-0.01,0.15s0.01,0.1,0.01,0.15c0,0.05-0.01,0.1-0.01,0.15s0.01,0.1,0.01,0.15
	c0,0.05-0.01,0.1-0.01,0.15s0.01,0.1,0.01,0.15c0,0.05-0.01,0.1-0.01,0.15s0.01,0.1,0.01,0.15c0,0.05-0.01,0.1-0.01,0.15
	s0.01,0.1,0.01,0.15c0,0.05-0.01,0.1-0.01,0.15s0.01,0.1,0.01,0.15c0,0.05-0.01,0.1-0.01,0.15s0.01,0.1,0.01,0.15
	c0,0.05-0.01,0.1-0.01,0.15s0.01,0.1,0.01,0.15c0,0.05-0.01,0.1-0.01,0.15s0.01,0.1,0.01,0.15c0,0.05-0.01,0.1-0.01,0.15
	s0.01,0.1,0.01,0.15c0,0.05-0.01,0.1-0.01,0.15s0.01,0.1,0.01,0.15c0,0.05-0.01,0.1-0.01,0.15s0.01,0.1,0.01,0.15
	C0.01,78.3,0,78.35,0,78.4s0.01,0.1,0.01,0.15c0,0.05-0.01,0.1-0.01,0.15s0.01,0.1,0.01,0.15c0,0.05-0.01,0.1-0.01,0.15
	s0.01,0.1,0.01,0.15c0,0.05-0.01,0.1-0.01,0.15s0.01,0.1,0.01,0.15c0,0.05-0.01,0.1-0.01,0.15s0.01,0.1,0.01,0.15
	c0,0.05-0.01,0.1-0.01,0.15s0.01,0.1,0.01,0.15c0,0.05-0.01,0.1-0.01,0.15s0.01,0.1,0.01,0.15c0,0.05-0.01,0.1-0.01,0.15
	s0.01,0.1,0.01,0.15c0,0.05-0.01,0.1-0.01,0.15s0.01,0.1,0.01,0.15c0,0.05-0.01,0.1-0.01,0.15s0.01,0.1,0.01,0.15
	c0,0.05-0.01,0.1-0.01,0.15s0.01,0.1,0.01,0.15c0,0.05-0.01,0.1-0.01,0.15s0.01,0.1,0.01,0.15c0,0.05-0.01,0.1-0.01,0.15
	s0.01,0.1,0.01,0.15c0,0.05-0.01,0.1-0.01,0.15s0.01,0.1,0.01,0.15C0.01,82.4,0,82.45,0,82.5s0.01,0.1,0.01,0.15
	c0,0.05-0.01,0.1-0.01,0.15s0.01,0.1,0.01,0.15c0,0.05-0.01,0.1-0.01,0.15s0.01,0.1,0.01,0.15c0,0.05-0.01,0.1-0.01,0.15
	s0.01,0.1,0.01,0.15c0,0.05-0.01,0.1-0.01,0.15s0.01,0.1,0.01,0.15c0,0.05-0.01,0.1-0.01,0.15s0.01,0.1,0.01,0.15
	c0,0.05-0.01,0.1-0.01,0.15s0.01,0.1,0.01,0.15c0,0.05-0.01,0.1-0.01,0.15s0.01,0.1,0.01,0.15c0,0.05-0.01,0.1-0.01,0.15
	s0.01,0.1,0.01,0.15c0,0.05-0.01,0.1-0.01,0.15s0.01,0.1,0.01,0.15c0,0.05-0.01,0.1-0.01,0.15s0.01,0.1,0.01,0.15
	c0,0.05-0.01,0.1-0.01,0.15s0.01,0.1,0.01,0.15c0,0.05-0.01,0.1-0.01,0.15s0.01,0.1,0.01,0.15c0,0.05-0.01,0.1-0.01,0.15
	s0.01,0.1,0.01,0.15C0.01,86.5,0,86.55,0,86.6s0.01,0.1,0.01,0.15c0,0.05-0.01,0.1-0.01,0.15s0.01,0.1,0.01,0.15
	c0,0.05-0.01,0.1-0.01,0.15s0.01,0.1,0.01,0.15c0,0.05-0.01,0.1-0.01,0.15s0.01,0.1,0.01,0.15c0,0.05-0.01,0.1-0.01,0.15
	s0.01,0.1,0.01,0.15c0,0.05-0.01,0.1-0.01,0.15s0.01,0.1,0.01,0.15c0,0.05-0.01,0.1-0.01,0.15s0.01,0.1,0.01,0.15
	c0,0.05-0.01,0.1-0.01,0.15s0.01,0.1,0.01,0.15c0,0.05-0.01,0.1-0.01,0.15s0.01,0.1,0.01,0.15c0,0.05-0.01,0.1-0.01,0.15
	s0.01,0.1,0.01,0.15c0,0.05-0.01,0.1-0.01,0.15s0.01,0.1,0.01,0.15c0,0.05-0.01,0.1-0.01,0.15s0.01,0.1,0.01,0.15
	c0,0.05-0.01,0.1-0.01,0.15s0.01,0.1,0.01,0.15c0,0.05-0.01,0.1-0.01,0.15s0.01,0.1,0.01,0.15c0,0.05-0.01,0.1-0.01,0.15
	s0.01,0.1,0.01,0.15C0.01,90.9,0,90.95,0,91s0.01,0.1,0.01,0.15c0,0.05-0.01,0.1-0.01,0.15s0.01,0.1,0.01,0.15
	c0,0.05-0.01,0.1-0.01,0.15c0,13.53,32.68,24.5,73,24.5s73-10.97,73-24.5c0-0.05-0.01-0.1-0.01-0.15c0-0.05,0.01-0.1,0.01-0.15
	s-0.01-0.1-0.01-0.15c0-0.05,0.01-0.1,0.01-0.15s-0.01-0.1-0.01-0.15c0-0.05,0.01-0.1,0.01-0.15s-0.01-0.1-0.01-0.15
	c0-0.05,0.01-0.1,0.01-0.15s-0.01-0.1-0.01-0.15c0-0.05,0.01-0.1,0.01-0.15s-0.01-0.1-0.01-0.15c0-0.05,0.01-0.1,0.01-0.15
	s-0.01-0.1-0.01-0.15c0-0.05,0.01-0.1,0.01-0.15s-0.01-0.1-0.01-0.15c0-0.05,0.01-0.1,0.01-0.15s-0.01-0.1-0.01-0.15
	c0-0.05,0.01-0.1,0.01-0.15s-0.01-0.1-0.01-0.15c0-0.05,0.01-0.1,0.01-0.15s-0.01-0.1-0.01-0.15c0-0.05,0.01-0.1,0.01-0.15
	s-0.01-0.1-0.01-0.15c0-0.05,0.01-0.1,0.01-0.15s-0.01-0.1-0.01-0.15c0-0.05,0.01-0.1,0.01-0.15s-0.01-0.1-0.01-0.15
	c0-0.05,0.01-0.1,0.01-0.15s-0.01-0.1-0.01-0.15c0-0.05,0.01-0.1,0.01-0.15s-0.01-0.1-0.01-0.15c0-0.05,0.01-0.1,0.01-0.15
	s-0.01-0.1-0.01-0.15c0-0.05,0.01-0.1,0.01-0.15s-0.01-0.1-0.01-0.15c0-0.05,0.01-0.1,0.01-0.15s-0.01-0.1-0.01-0.15
	c0-0.05,0.01-0.1,0.01-0.15s-0.01-0.1-0.01-0.15c0-0.05,0.01-0.1,0.01-0.15s-0.01-0.1-0.01-0.15c0-0.05,0.01-0.1,0.01-0.15
	s-0.01-0.1-0.01-0.15c0-0.05,0.01-0.1,0.01-0.15s-0.01-0.1-0.01-0.15c0-0.05,0.01-0.1,0.01-0.15s-0.01-0.1-0.01-0.15
	c0-0.05,0.01-0.1,0.01-0.15s-0.01-0.1-0.01-0.15c0-0.05,0.01-0.1,0.01-0.15s-0.01-0.1-0.01-0.15c0-0.05,0.01-0.1,0.01-0.15
	s-0.01-0.1-0.01-0.15c0-0.05,0.01-0.1,0.01-0.15s-0.01-0.1-0.01-0.15c0-0.05,0.01-0.1,0.01-0.15s-0.01-0.1-0.01-0.15
	c0-0.05,0.01-0.1,0.01-0.15s-0.01-0.1-0.01-0.15c0-0.05,0.01-0.1,0.01-0.15s-0.01-0.1-0.01-0.15c0-0.05,0.01-0.1,0.01-0.15
	s-0.01-0.1-0.01-0.15c0-0.05,0.01-0.1,0.01-0.15s-0.01-0.1-0.01-0.15c0-0.05,0.01-0.1,0.01-0.15s-0.01-0.1-0.01-0.15
	c0-0.05,0.01-0.1,0.01-0.15s-0.01-0.1-0.01-0.15c0-0.05,0.01-0.1,0.01-0.15s-0.01-0.1-0.01-0.15c0-0.05,0.01-0.1,0.01-0.15
	s-0.01-0.1-0.01-0.15c0-0.05,0.01-0.1,0.01-0.15s-0.01-0.1-0.01-0.15c0-0.05,0.01-0.1,0.01-0.15s-0.01-0.1-0.01-0.15
	c0-0.05,0.01-0.1,0.01-0.15s-0.01-0.1-0.01-0.15c0-0.05,0.01-0.1,0.01-0.15s-0.01-0.1-0.01-0.15c0-0.05,0.01-0.1,0.01-0.15
	s-0.01-0.1-0.01-0.15c0-0.05,0.01-0.1,0.01-0.15s-0.01-0.1-0.01-0.15c0-0.05,0.01-0.1,0.01-0.15s-0.01-0.1-0.01-0.15
	c0-0.05,0.01-0.1,0.01-0.15s-0.01-0.1-0.01-0.15c0-0.05,0.01-0.1,0.01-0.15s-0.01-0.1-0.01-0.15c0-0.05,0.01-0.1,0.01-0.15
	s-0.01-0.1-0.01-0.15c0-0.05,0.01-0.1,0.01-0.15s-0.01-0.1-0.01-0.15c0-0.05,0.01-0.1,0.01-0.15s-0.01-0.1-0.01-0.15
	c0-0.05,0.01-0.1,0.01-0.15s-0.01-0.1-0.01-0.15c0-0.05,0.01-0.1,0.01-0.15s-0.01-0.1-0.01-0.15c0-0.05,0.01-0.1,0.01-0.15
	s-0.01-0.1-0.01-0.15c0-0.05,0.01-0.1,0.01-0.15s-0.01-0.1-0.01-0.15c0-0.05,0.01-0.1,0.01-0.15s-0.01-0.1-0.01-0.15
	c0-0.05,0.01-0.1,0.01-0.15s-0.01-0.1-0.01-0.15c0-0.05,0.01-0.1,0.01-0.15s-0.01-0.1-0.01-0.15c0-0.05,0.01-0.1,0.01-0.15
	s-0.01-0.1-0.01-0.15c0-0.05,0.01-0.1,0.01-0.15s-0.01-0.1-0.01-0.15c0-0.05,0.01-0.1,0.01-0.15s-0.01-0.1-0.01-0.15
	c0-0.05,0.01-0.1,0.01-0.15s-0.01-0.1-0.01-0.15c0-0.05,0.01-0.1,0.01-0.15s-0.01-0.1-0.01-0.15c0-0.05,0.01-0.1,0.01-0.15
	s-0.01-0.1-0.01-0.15c0-0.05,0.01-0.1,0.01-0.15s-0.01-0.1-0.01-0.15c0-0.05,0.01-0.1,0.01-0.15s-0.01-0.1-0.01-0.15
	c0-0.05,0.01-0.1,0.01-0.15s-0.01-0.1-0.01-0.15c0-0.05,0.01-0.1,0.01-0.15s-0.01-0.1-0.01-0.15c0-0.05,0.01-0.1,0.01-0.15
	s-0.01-0.1-0.01-0.15c0-0.05,0.01-0.1,0.01-0.15s-0.01-0.1-0.01-0.15c0-0.05,0.01-0.1,0.01-0.15s-0.01-0.1-0.01-0.15
	c0-0.05,0.01-0.1,0.01-0.15s-0.01-0.1-0.01-0.15c0-0.05,0.01-0.1,0.01-0.15s-0.01-0.1-0.01-0.15c0-0.05,0.01-0.1,0.01-0.15
	s-0.01-0.1-0.01-0.15c0-0.05,0.01-0.1,0.01-0.15s-0.01-0.1-0.01-0.15c0-0.05,0.01-0.1,0.01-0.15s-0.01-0.1-0.01-0.15
	c0-0.05,0.01-0.1,0.01-0.15s-0.01-0.1-0.01-0.15c0-0.05,0.01-0.1,0.01-0.15s-0.01-0.1-0.01-0.15c0-0.05,0.01-0.1,0.01-0.15
	s-0.01-0.1-0.01-0.15c0-0.05,0.01-0.1,0.01-0.15s-0.01-0.1-0.01-0.15c0-0.05,0.01-0.1,0.01-0.15s-0.01-0.1-0.01-0.15
	c0-0.05,0.01-0.1,0.01-0.15s-0.01-0.1-0.01-0.15c0-0.05,0.01-0.1,0.01-0.15s-0.01-0.1-0.01-0.15c0-0.05,0.01-0.1,0.01-0.15
	s-0.01-0.1-0.01-0.15c0-0.05,0.01-0.1,0.01-0.15s-0.01-0.1-0.01-0.15c0-0.05,0.01-0.1,0.01-0.15s-0.01-0.1-0.01-0.15
	c0-0.05,0.01-0.1,0.01-0.15s-0.01-0.1-0.01-0.15c0-0.05,0.01-0.1,0.01-0.15s-0.01-0.1-0.01-0.15c0-0.05,0.01-0.1,0.01-0.15
	s-0.01-0.1-0.01-0.15c0-0.05,0.01-0.1,0.01-0.15s-0.01-0.1-0.01-0.15c0-0.05,0.01-0.1,0.01-0.15s-0.01-0.1-0.01-0.15
	c0-0.05,0.01-0.1,0.01-0.15s-0.01-0.1-0.01-0.15c0-0.05,0.01-0.1,0.01-0.15s-0.01-0.1-0.01-0.15c0-0.05,0.01-0.1,0.01-0.15
	s-0.01-0.1-0.01-0.15c0-0.05,0.01-0.1,0.01-0.15s-0.01-0.1-0.01-0.15c0-0.05,0.01-0.1,0.01-0.15s-0.01-0.1-0.01-0.15
	c0-0.05,0.01-0.1,0.01-0.15c0-0.05-0.01-0.1-0.01-0.15c0-0.05,0.01-0.1,0.01-0.15s-0.01-0.1-0.01-0.15c0-0.05,0.01-0.1,0.01-0.15
	s-0.01-0.1-0.01-0.15c0-0.05,0.01-0.1,0.01-0.15s-0.01-0.1-0.01-0.15c0-0.05,0.01-0.1,0.01-0.15s-0.01-0.1-0.01-0.15
	c0-0.05,0.01-0.1,0.01-0.15s-0.01-0.1-0.01-0.15c0-0.05,0.01-0.1,0.01-0.15s-0.01-0.1-0.01-0.15c0-0.05,0.01-0.1,0.01-0.15
	s-0.01-0.1-0.01-0.15c0-0.05,0.01-0.1,0.01-0.15s-0.01-0.1-0.01-0.15c0-0.05,0.01-0.1,0.01-0.15s-0.01-0.1-0.01-0.15
	c0-0.05,0.01-0.1,0.01-0.15s-0.01-0.1-0.01-0.15c0-0.05,0.01-0.1,0.01-0.15s-0.01-0.1-0.01-0.15c0-0.05,0.01-0.1,0.01-0.15
	s-0.01-0.1-0.01-0.15c0-0.05,0.01-0.1,0.01-0.15s-0.01-0.1-0.01-0.15c0-0.05,0.01-0.1,0.01-0.15s-0.01-0.1-0.01-0.15
	c0-0.05,0.01-0.1,0.01-0.15s-0.01-0.1-0.01-0.15c0-0.05,0.01-0.1,0.01-0.15s-0.01-0.1-0.01-0.15c0-0.05,0.01-0.1,0.01-0.15
	s-0.01-0.1-0.01-0.15c0-0.05,0.01-0.1,0.01-0.15s-0.01-0.1-0.01-0.15c0-0.05,0.01-0.1,0.01-0.15s-0.01-0.1-0.01-0.15
	c0-0.05,0.01-0.1,0.01-0.15s-0.01-0.1-0.01-0.15c0-0.05,0.01-0.1,0.01-0.15s-0.01-0.1-0.01-0.15c0-0.05,0.01-0.1,0.01-0.15
	s-0.01-0.1-0.01-0.15c0-0.05,0.01-0.1,0.01-0.15s-0.01-0.1-0.01-0.15c0-0.05,0.01-0.1,0.01-0.15s-0.01-0.1-0.01-0.15
	c0-0.05,0.01-0.1,0.01-0.15s-0.01-0.1-0.01-0.15c0-0.05,0.01-0.1,0.01-0.15s-0.01-0.1-0.01-0.15c0-0.05,0.01-0.1,0.01-0.15
	s-0.01-0.1-0.01-0.15c0-0.05,0.01-0.1,0.01-0.15s-0.01-0.1-0.01-0.15c0-0.05,0.01-0.1,0.01-0.15s-0.01-0.1-0.01-0.15
	c0-0.05,0.01-0.1,0.01-0.15s-0.01-0.1-0.01-0.15c0-0.05,0.01-0.1,0.01-0.15s-0.01-0.1-0.01-0.15c0-0.05,0.01-0.1,0.01-0.15
	s-0.01-0.1-0.01-0.15c0-0.05,0.01-0.1,0.01-0.15s-0.01-0.1-0.01-0.15c0-0.05,0.01-0.1,0.01-0.15s-0.01-0.1-0.01-0.15
	c0-0.05,0.01-0.1,0.01-0.15s-0.01-0.1-0.01-0.15c0-0.05,0.01-0.1,0.01-0.15s-0.01-0.1-0.01-0.15c0-0.05,0.01-0.1,0.01-0.15
	s-0.01-0.1-0.01-0.15c0-0.05,0.01-0.1,0.01-0.15s-0.01-0.1-0.01-0.15c0-0.05,0.01-0.1,0.01-0.15s-0.01-0.1-0.01-0.15
	c0-0.05,0.01-0.1,0.01-0.15s-0.01-0.1-0.01-0.15c0-0.05,0.01-0.1,0.01-0.15s-0.01-0.1-0.01-0.15c0-0.05,0.01-0.1,0.01-0.15
	s-0.01-0.1-0.01-0.15c0-0.05,0.01-0.1,0.01-0.15s-0.01-0.1-0.01-0.15c0-0.05,0.01-0.1,0.01-0.15s-0.01-0.1-0.01-0.15
	c0-0.05,0.01-0.1,0.01-0.15s-0.01-0.1-0.01-0.15c0-0.05,0.01-0.1,0.01-0.15s-0.01-0.1-0.01-0.15c0-0.05,0.01-0.1,0.01-0.15
	s-0.01-0.1-0.01-0.15c0-0.05,0.01-0.1,0.01-0.15s-0.01-0.1-0.01-0.15c0-0.05,0.01-0.1,0.01-0.15s-0.01-0.1-0.01-0.15
	c0-0.05,0.01-0.1,0.01-0.15s-0.01-0.1-0.01-0.15c0-0.05,0.01-0.1,0.01-0.15s-0.01-0.1-0.01-0.15c0-0.05,0.01-0.1,0.01-0.15
	s-0.01-0.1-0.01-0.15c0-0.05,0.01-0.1,0.01-0.15s-0.01-0.1-0.01-0.15c0-0.05,0.01-0.1,0.01-0.15s-0.01-0.1-0.01-0.15
	c0-0.05,0.01-0.1,0.01-0.15s-0.01-0.1-0.01-0.15c0-0.05,0.01-0.1,0.01-0.15s-0.01-0.1-0.01-0.15c0-0.05,0.01-0.1,0.01-0.15
	s-0.01-0.1-0.01-0.15c0-0.05,0.01-0.1,0.01-0.15s-0.01-0.1-0.01-0.15c0-0.05,0.01-0.1,0.01-0.15s-0.01-0.1-0.01-0.15
	c0-0.05,0.01-0.1,0.01-0.15s-0.01-0.1-0.01-0.15c0-0.05,0.01-0.1,0.01-0.15s-0.01-0.1-0.01-0.15c0-0.05,0.01-0.1,0.01-0.15
	s-0.01-0.1-0.01-0.15c0-0.05,0.01-0.1,0.01-0.15s-0.01-0.1-0.01-0.15c0-0.05,0.01-0.1,0.01-0.15s-0.01-0.1-0.01-0.15
	c0-0.05,0.01-0.1,0.01-0.15s-0.01-0.1-0.01-0.15c0-0.05,0.01-0.1,0.01-0.15s-0.01-0.1-0.01-0.15c0-0.05,0.01-0.1,0.01-0.15
	s-0.01-0.1-0.01-0.15c0-0.05,0.01-0.1,0.01-0.15s-0.01-0.1-0.01-0.15c0-0.05,0.01-0.1,0.01-0.15s-0.01-0.1-0.01-0.15
	c0-0.05,0.01-0.1,0.01-0.15s-0.01-0.1-0.01-0.15c0-0.05,0.01-0.1,0.01-0.15s-0.01-0.1-0.01-0.15c0-0.05,0.01-0.1,0.01-0.15
	s-0.01-0.1-0.01-0.15c0-0.05,0.01-0.1,0.01-0.15s-0.01-0.1-0.01-0.15c0-0.05,0.01-0.1,0.01-0.15s-0.01-0.1-0.01-0.15
	c0-0.05,0.01-0.1,0.01-0.15s-0.01-0.1-0.01-0.15c0-0.05,0.01-0.1,0.01-0.15s-0.01-0.1-0.01-0.15c0-0.05,0.01-0.1,0.01-0.15
	s-0.01-0.1-0.01-0.15c0-0.05,0.01-0.1,0.01-0.15s-0.01-0.1-0.01-0.15c0-0.05,0.01-0.1,0.01-0.15s-0.01-0.1-0.01-0.15
	c0-0.05,0.01-0.1,0.01-0.15s-0.01-0.1-0.01-0.15c0-0.05,0.01-0.1,0.01-0.15s-0.01-0.1-0.01-0.15c0-0.05,0.01-0.1,0.01-0.15
	s-0.01-0.1-0.01-0.15c0-0.05,0.01-0.1,0.01-0.15s-0.01-0.1-0.01-0.15c0-0.05,0.01-0.1,0.01-0.15s-0.01-0.1-0.01-0.15
	c0-0.05,0.01-0.1,0.01-0.15s-0.01-0.1-0.01-0.15c0-0.05,0.01-0.1,0.01-0.15s-0.01-0.1-0.01-0.15c0-0.05,0.01-0.1,0.01-0.15
	s-0.01-0.1-0.01-0.15c0-0.05,0.01-0.1,0.01-0.15s-0.01-0.1-0.01-0.15c0-0.05,0.01-0.1,0.01-0.15s-0.01-0.1-0.01-0.15
	c0-0.05,0.01-0.1,0.01-0.15s-0.01-0.1-0.01-0.15c0-0.05,0.01-0.1,0.01-0.15s-0.01-0.1-0.01-0.15c0-0.05,0.01-0.1,0.01-0.15
	s-0.01-0.1-0.01-0.15c0-0.05,0.01-0.1,0.01-0.15s-0.01-0.1-0.01-0.15c0-0.05,0.01-0.1,0.01-0.15s-0.01-0.1-0.01-0.15
	c0-0.05,0.01-0.1,0.01-0.15s-0.01-0.1-0.01-0.15c0-0.05,0.01-0.1,0.01-0.15s-0.01-0.1-0.01-0.15c0-0.05,0.01-0.1,0.01-0.15
	s-0.01-0.1-0.01-0.15c0-0.05,0.01-0.1,0.01-0.15s-0.01-0.1-0.01-0.15c0-0.05,0.01-0.1,0.01-0.15s-0.01-0.1-0.01-0.15
	c0-0.05,0.01-0.1,0.01-0.15s-0.01-0.1-0.01-0.15c0-0.05,0.01-0.1,0.01-0.15s-0.01-0.1-0.01-0.15c0-0.05,0.01-0.1,0.01-0.15
	s-0.01-0.1-0.01-0.15c0-0.05,0.01-0.1,0.01-0.15s-0.01-0.1-0.01-0.15c0-0.05,0.01-0.1,0.01-0.15s-0.01-0.1-0.01-0.15
	c0-0.05,0.01-0.1,0.01-0.15s-0.01-0.1-0.01-0.15c0-0.05,0.01-0.1,0.01-0.15s-0.01-0.1-0.01-0.15c0-0.05,0.01-0.1,0.01-0.15
	s-0.01-0.1-0.01-0.15c0-0.05,0.01-0.1,0.01-0.15s-0.01-0.1-0.01-0.15c0-0.05,0.01-0.1,0.01-0.15s-0.01-0.1-0.01-0.15
	c0-0.05,0.01-0.1,0.01-0.15s-0.01-0.1-0.01-0.15c0-0.05,0.01-0.1,0.01-0.15s-0.01-0.1-0.01-0.15c0-0.05,0.01-0.1,0.01-0.15
	s-0.01-0.1-0.01-0.15c0-0.05,0.01-0.1,0.01-0.15s-0.01-0.1-0.01-0.15c0-0.05,0.01-0.1,0.01-0.15s-0.01-0.1-0.01-0.15
	c0-0.05,0.01-0.1,0.01-0.15s-0.01-0.1-0.01-0.15c0-0.05,0.01-0.1,0.01-0.15s-0.01-0.1-0.01-0.15c0-0.05,0.01-0.1,0.01-0.15
	s-0.01-0.1-0.01-0.15c0-0.05,0.01-0.1,0.01-0.15s-0.01-0.1-0.01-0.15c0-0.05,0.01-0.1,0.01-0.15s-0.01-0.1-0.01-0.15
	c0-0.05,0.01-0.1,0.01-0.15s-0.01-0.1-0.01-0.15c0-0.05,0.01-0.1,0.01-0.15s-0.01-0.1-0.01-0.15c0-0.05,0.01-0.1,0.01-0.15
	s-0.01-0.1-0.01-0.15c0-0.05,0.01-0.1,0.01-0.15s-0.01-0.1-0.01-0.15c0-0.05,0.01-0.1,0.01-0.15s-0.01-0.1-0.01-0.15
	c0-0.05,0.01-0.1,0.01-0.15s-0.01-0.1-0.01-0.15c0-0.05,0.01-0.1,0.01-0.15s-0.01-0.1-0.01-0.15c0-0.05,0.01-0.1,0.01-0.15
	s-0.01-0.1-0.01-0.15c0-0.05,0.01-0.1,0.01-0.15s-0.01-0.1-0.01-0.15c0-0.05,0.01-0.1,0.01-0.15s-0.01-0.1-0.01-0.15
	c0-0.05,0.01-0.1,0.01-0.15s-0.01-0.1-0.01-0.15c0-0.05,0.01-0.1,0.01-0.15s-0.01-0.1-0.01-0.15c0-0.05,0.01-0.1,0.01-0.15
	s-0.01-0.1-0.01-0.15c0-0.05,0.01-0.1,0.01-0.15s-0.01-0.1-0.01-0.15c0-0.05,0.01-0.1,0.01-0.15C146,24.75,145.99,24.7,145.99,24.65
	z"/>
</svg>
